<?xml version="1.0" standalone="no"?>
<!DOCTYPE svg PUBLIC "-//W3C//DTD SVG 20010904//EN"
 "http://www.w3.org/TR/2001/REC-SVG-20010904/DTD/svg10.dtd">
<svg version="1.0" xmlns="http://www.w3.org/2000/svg"
 width="400.000000pt" height="400.000000pt" viewBox="0 0 400.000000 400.000000"
 preserveAspectRatio="xMidYMid meet">
<metadata>
Created by potrace 1.14, written by Peter Selinger 2001-2017
</metadata>
<g transform="translate(0.000000,400.000000) scale(0.100000,-0.100000)"
fill="#000000" stroke="none">
<path d="M1077 3728 c-8 -4 -12 -45 -11 -131 1 -107 -1 -126 -15 -129 -9 -2
-69 -3 -133 -3 l-118 1 0 -133 0 -133 -133 0 -133 0 1 -117 c0 -65 -1 -125 -3
-134 -3 -14 -22 -16 -133 -15 -122 1 -129 0 -130 -19 -1 -11 -2 -431 -2 -932
-1 -601 1 -914 8 -916 6 -2 66 -2 135 -1 l125 2 -1 -134 0 -134 133 0 133 0 0
-133 0 -134 133 1 132 1 0 -133 c0 -72 2 -132 5 -133 3 -1 421 -2 928 -2 813
-2 925 0 931 13 4 8 6 69 5 135 l-1 120 131 0 131 0 3 133 3 132 132 0 132 0
0 118 c0 64 1 124 3 133 3 14 21 16 133 15 108 -1 129 1 130 14 0 8 2 428 2
932 1 605 -1 919 -8 921 -5 1 -66 2 -135 1 l-125 -2 1 134 0 134 -133 0 -132
0 -3 133 -3 132 -130 0 -130 0 0 133 c0 72 -2 132 -5 133 -26 5 -1844 2 -1853
-3z"/>
</g>
</svg>
